<mxfile host="app.diagrams.net" modified="2023-02-27T09:59:03.390Z" agent="5.0 (Windows NT 10.0; Win64; x64) AppleWebKit/537.36 (KHTML, like Gecko) Chrome/110.0.0.0 Safari/537.36" etag="icvoPOjULGj98pRthF3M" version="20.8.23" type="github">
  <diagram name="第 1 页" id="MUi1O8elwZj6XTYF88V-">
    <mxGraphModel dx="1380" dy="804" grid="1" gridSize="10" guides="1" tooltips="1" connect="1" arrows="1" fold="1" page="1" pageScale="1" pageWidth="3300" pageHeight="4681" math="0" shadow="0">
      <root>
        <mxCell id="0" />
        <mxCell id="1" parent="0" />
        <mxCell id="dEJszUH9l_Cdlt4EVpKs-1" value="&lt;b&gt;&lt;font style=&quot;font-size: 16px;&quot;&gt;微信环境&lt;/font&gt;&lt;/b&gt;" style="text;strokeColor=none;align=center;fillColor=none;html=1;verticalAlign=middle;whiteSpace=wrap;rounded=0;" vertex="1" parent="1">
          <mxGeometry x="50" y="60" width="80" height="30" as="geometry" />
        </mxCell>
        <mxCell id="dEJszUH9l_Cdlt4EVpKs-2" value="&lt;font style=&quot;font-size: 12px;&quot;&gt;表单填写页面&lt;/font&gt;" style="rounded=1;whiteSpace=wrap;html=1;fontSize=16;" vertex="1" parent="1">
          <mxGeometry x="30" y="185" width="80" height="30" as="geometry" />
        </mxCell>
        <mxCell id="dEJszUH9l_Cdlt4EVpKs-3" value="&lt;font style=&quot;font-size: 12px;&quot;&gt;提交表单&lt;/font&gt;" style="rounded=1;whiteSpace=wrap;html=1;fontSize=16;" vertex="1" parent="1">
          <mxGeometry x="160" y="185" width="70" height="30" as="geometry" />
        </mxCell>
        <mxCell id="dEJszUH9l_Cdlt4EVpKs-4" value="&lt;font style=&quot;font-size: 12px;&quot;&gt;是否需要付费&lt;/font&gt;" style="rhombus;whiteSpace=wrap;html=1;fontSize=16;" vertex="1" parent="1">
          <mxGeometry x="280" y="180" width="80" height="40" as="geometry" />
        </mxCell>
        <mxCell id="dEJszUH9l_Cdlt4EVpKs-5" value="&lt;font style=&quot;font-size: 12px;&quot;&gt;表单提交成功&lt;br&gt;活动报名成功&lt;br&gt;&lt;/font&gt;" style="rounded=1;whiteSpace=wrap;html=1;fontSize=16;" vertex="1" parent="1">
          <mxGeometry x="360" y="260" width="90" height="40" as="geometry" />
        </mxCell>
        <mxCell id="dEJszUH9l_Cdlt4EVpKs-8" value="&lt;span style=&quot;font-size: 12px;&quot;&gt;是否已授权活动关联的&lt;br&gt;公众号头像&amp;amp;昵称&lt;/span&gt;" style="rhombus;whiteSpace=wrap;html=1;fontSize=16;" vertex="1" parent="1">
          <mxGeometry x="440" y="163.75" width="130" height="72.5" as="geometry" />
        </mxCell>
        <mxCell id="dEJszUH9l_Cdlt4EVpKs-10" value="否" style="endArrow=classic;html=1;rounded=0;fontSize=12;exitX=0.5;exitY=1;exitDx=0;exitDy=0;entryX=0;entryY=0.5;entryDx=0;entryDy=0;" edge="1" parent="1" source="dEJszUH9l_Cdlt4EVpKs-4" target="dEJszUH9l_Cdlt4EVpKs-5">
          <mxGeometry relative="1" as="geometry">
            <mxPoint x="470" y="220" as="sourcePoint" />
            <mxPoint x="570" y="220" as="targetPoint" />
            <Array as="points">
              <mxPoint x="320" y="280" />
            </Array>
          </mxGeometry>
        </mxCell>
        <mxCell id="dEJszUH9l_Cdlt4EVpKs-11" value="否" style="edgeLabel;resizable=0;html=1;align=center;verticalAlign=middle;fontSize=12;rotation=0;" connectable="0" vertex="1" parent="dEJszUH9l_Cdlt4EVpKs-10">
          <mxGeometry relative="1" as="geometry">
            <mxPoint x="-3" as="offset" />
          </mxGeometry>
        </mxCell>
        <mxCell id="dEJszUH9l_Cdlt4EVpKs-13" value="&lt;span style=&quot;font-size: 12px;&quot;&gt;授权头像昵称引导&lt;/span&gt;" style="rounded=1;whiteSpace=wrap;html=1;fontSize=16;" vertex="1" parent="1">
          <mxGeometry x="680" y="185" width="100" height="30" as="geometry" />
        </mxCell>
        <mxCell id="dEJszUH9l_Cdlt4EVpKs-14" value="" style="endArrow=classic;html=1;rounded=0;fontSize=12;exitX=1;exitY=0.5;exitDx=0;exitDy=0;entryX=0;entryY=0.5;entryDx=0;entryDy=0;" edge="1" parent="1" source="dEJszUH9l_Cdlt4EVpKs-2" target="dEJszUH9l_Cdlt4EVpKs-3">
          <mxGeometry width="50" height="50" relative="1" as="geometry">
            <mxPoint x="590" y="340" as="sourcePoint" />
            <mxPoint x="640" y="290" as="targetPoint" />
          </mxGeometry>
        </mxCell>
        <mxCell id="dEJszUH9l_Cdlt4EVpKs-15" value="" style="endArrow=classic;html=1;rounded=0;fontSize=12;" edge="1" parent="1">
          <mxGeometry width="50" height="50" relative="1" as="geometry">
            <mxPoint x="230" y="200" as="sourcePoint" />
            <mxPoint x="280" y="200" as="targetPoint" />
            <Array as="points">
              <mxPoint x="280" y="200" />
            </Array>
          </mxGeometry>
        </mxCell>
        <mxCell id="dEJszUH9l_Cdlt4EVpKs-17" value="是" style="endArrow=classic;html=1;rounded=0;fontSize=12;exitX=1;exitY=0.5;exitDx=0;exitDy=0;entryX=0;entryY=0.5;entryDx=0;entryDy=0;" edge="1" parent="1" target="dEJszUH9l_Cdlt4EVpKs-8">
          <mxGeometry width="50" height="50" relative="1" as="geometry">
            <mxPoint x="360" y="199.5" as="sourcePoint" />
            <mxPoint x="430" y="200" as="targetPoint" />
          </mxGeometry>
        </mxCell>
        <mxCell id="dEJszUH9l_Cdlt4EVpKs-19" value="否" style="endArrow=classic;html=1;rounded=0;fontSize=12;exitX=1;exitY=0.5;exitDx=0;exitDy=0;entryX=0;entryY=0.5;entryDx=0;entryDy=0;" edge="1" parent="1" target="dEJszUH9l_Cdlt4EVpKs-13">
          <mxGeometry width="50" height="50" relative="1" as="geometry">
            <mxPoint x="570" y="199.5" as="sourcePoint" />
            <mxPoint x="650" y="200" as="targetPoint" />
          </mxGeometry>
        </mxCell>
        <mxCell id="dEJszUH9l_Cdlt4EVpKs-20" value="&lt;span style=&quot;font-size: 12px;&quot;&gt;发起支付&lt;/span&gt;" style="rounded=1;whiteSpace=wrap;html=1;fontSize=16;" vertex="1" parent="1">
          <mxGeometry x="920" y="185" width="100" height="30" as="geometry" />
        </mxCell>
        <mxCell id="dEJszUH9l_Cdlt4EVpKs-21" value="同意授权" style="endArrow=classic;html=1;rounded=0;fontSize=12;exitX=1;exitY=0.5;exitDx=0;exitDy=0;entryX=0;entryY=0.5;entryDx=0;entryDy=0;" edge="1" parent="1" target="dEJszUH9l_Cdlt4EVpKs-20">
          <mxGeometry width="50" height="50" relative="1" as="geometry">
            <mxPoint x="780" y="199.5" as="sourcePoint" />
            <mxPoint x="890" y="200" as="targetPoint" />
          </mxGeometry>
        </mxCell>
        <mxCell id="dEJszUH9l_Cdlt4EVpKs-22" value="&lt;span style=&quot;font-size: 12px;&quot;&gt;表单页面+获取完整服务引导&lt;/span&gt;" style="rounded=1;whiteSpace=wrap;html=1;fontSize=16;" vertex="1" parent="1">
          <mxGeometry x="920" y="280" width="100" height="40" as="geometry" />
        </mxCell>
        <mxCell id="dEJszUH9l_Cdlt4EVpKs-23" value="拒绝授权" style="endArrow=classic;html=1;rounded=0;fontSize=12;entryX=0;entryY=0.5;entryDx=0;entryDy=0;" edge="1" parent="1" target="dEJszUH9l_Cdlt4EVpKs-22">
          <mxGeometry width="50" height="50" relative="1" as="geometry">
            <mxPoint x="810" y="200" as="sourcePoint" />
            <mxPoint x="930" y="210" as="targetPoint" />
            <Array as="points">
              <mxPoint x="810" y="300" />
            </Array>
          </mxGeometry>
        </mxCell>
        <mxCell id="dEJszUH9l_Cdlt4EVpKs-24" value="获取授权" style="endArrow=classic;html=1;rounded=0;fontSize=12;exitX=0.544;exitY=1.044;exitDx=0;exitDy=0;entryX=0.4;entryY=1.167;entryDx=0;entryDy=0;exitPerimeter=0;entryPerimeter=0;" edge="1" parent="1" source="dEJszUH9l_Cdlt4EVpKs-22" target="dEJszUH9l_Cdlt4EVpKs-13">
          <mxGeometry width="50" height="50" relative="1" as="geometry">
            <mxPoint x="790" y="210" as="sourcePoint" />
            <mxPoint x="930" y="310" as="targetPoint" />
            <Array as="points">
              <mxPoint x="974" y="360" />
              <mxPoint x="720" y="360" />
            </Array>
          </mxGeometry>
        </mxCell>
        <mxCell id="dEJszUH9l_Cdlt4EVpKs-25" value="&lt;span style=&quot;font-size: 12px;&quot;&gt;支付成功&lt;br&gt;表单提交成功&lt;br&gt;活动报名成功&lt;br&gt;&lt;/span&gt;" style="rounded=1;whiteSpace=wrap;html=1;fontSize=16;" vertex="1" parent="1">
          <mxGeometry x="1140" y="167.5" width="100" height="65" as="geometry" />
        </mxCell>
        <mxCell id="dEJszUH9l_Cdlt4EVpKs-26" value="" style="endArrow=classic;html=1;rounded=0;fontSize=12;exitX=1;exitY=0.5;exitDx=0;exitDy=0;" edge="1" parent="1">
          <mxGeometry x="0.1429" width="50" height="50" relative="1" as="geometry">
            <mxPoint x="1020" y="199.75" as="sourcePoint" />
            <mxPoint x="1140" y="200" as="targetPoint" />
            <mxPoint as="offset" />
          </mxGeometry>
        </mxCell>
        <mxCell id="dEJszUH9l_Cdlt4EVpKs-28" value="" style="endArrow=classic;html=1;rounded=0;fontSize=12;" edge="1" parent="1">
          <mxGeometry x="0.1429" width="50" height="50" relative="1" as="geometry">
            <mxPoint x="1040" y="200" as="sourcePoint" />
            <mxPoint x="80" y="180" as="targetPoint" />
            <Array as="points">
              <mxPoint x="1040" y="120" />
              <mxPoint x="80" y="120" />
            </Array>
            <mxPoint as="offset" />
          </mxGeometry>
        </mxCell>
        <mxCell id="dEJszUH9l_Cdlt4EVpKs-31" value="用户关闭/取消支付" style="edgeLabel;html=1;align=center;verticalAlign=middle;resizable=0;points=[];fontSize=12;" vertex="1" connectable="0" parent="dEJszUH9l_Cdlt4EVpKs-28">
          <mxGeometry x="0.218" y="1" relative="1" as="geometry">
            <mxPoint as="offset" />
          </mxGeometry>
        </mxCell>
        <mxCell id="dEJszUH9l_Cdlt4EVpKs-32" value="&lt;b&gt;&lt;font style=&quot;font-size: 16px;&quot;&gt;非微信环境&lt;/font&gt;&lt;/b&gt;" style="text;html=1;align=center;verticalAlign=middle;resizable=0;points=[];autosize=1;strokeColor=none;fillColor=none;fontSize=12;" vertex="1" parent="1">
          <mxGeometry x="30" y="390" width="100" height="30" as="geometry" />
        </mxCell>
        <mxCell id="dEJszUH9l_Cdlt4EVpKs-33" value="&lt;font style=&quot;font-size: 12px;&quot;&gt;表单填写页面&lt;/font&gt;" style="rounded=1;whiteSpace=wrap;html=1;fontSize=16;" vertex="1" parent="1">
          <mxGeometry x="20" y="505" width="80" height="30" as="geometry" />
        </mxCell>
        <mxCell id="dEJszUH9l_Cdlt4EVpKs-34" value="&lt;font style=&quot;font-size: 12px;&quot;&gt;提交表单&lt;/font&gt;" style="rounded=1;whiteSpace=wrap;html=1;fontSize=16;" vertex="1" parent="1">
          <mxGeometry x="170" y="505" width="70" height="30" as="geometry" />
        </mxCell>
        <mxCell id="dEJszUH9l_Cdlt4EVpKs-35" value="" style="endArrow=classic;html=1;rounded=0;fontSize=12;exitX=1;exitY=0.5;exitDx=0;exitDy=0;entryX=0;entryY=0.5;entryDx=0;entryDy=0;" edge="1" parent="1" source="dEJszUH9l_Cdlt4EVpKs-33" target="dEJszUH9l_Cdlt4EVpKs-34">
          <mxGeometry width="50" height="50" relative="1" as="geometry">
            <mxPoint x="120" y="514.5" as="sourcePoint" />
            <mxPoint x="170" y="514.5" as="targetPoint" />
          </mxGeometry>
        </mxCell>
        <mxCell id="dEJszUH9l_Cdlt4EVpKs-37" value="&lt;font style=&quot;font-size: 12px;&quot;&gt;是否需要付费&lt;/font&gt;" style="rhombus;whiteSpace=wrap;html=1;fontSize=16;" vertex="1" parent="1">
          <mxGeometry x="330" y="500" width="80" height="40" as="geometry" />
        </mxCell>
        <mxCell id="dEJszUH9l_Cdlt4EVpKs-38" value="" style="endArrow=classic;html=1;rounded=0;fontSize=12;entryX=0;entryY=0.5;entryDx=0;entryDy=0;exitX=1;exitY=0.5;exitDx=0;exitDy=0;" edge="1" parent="1" source="dEJszUH9l_Cdlt4EVpKs-34" target="dEJszUH9l_Cdlt4EVpKs-37">
          <mxGeometry width="50" height="50" relative="1" as="geometry">
            <mxPoint x="240" y="590" as="sourcePoint" />
            <mxPoint x="310" y="519.5" as="targetPoint" />
          </mxGeometry>
        </mxCell>
        <mxCell id="dEJszUH9l_Cdlt4EVpKs-39" value="&lt;span style=&quot;font-size: 12px;&quot;&gt;弹出付款二维码&lt;/span&gt;" style="rounded=1;whiteSpace=wrap;html=1;fontSize=16;" vertex="1" parent="1">
          <mxGeometry x="520" y="505" width="90" height="30" as="geometry" />
        </mxCell>
        <mxCell id="dEJszUH9l_Cdlt4EVpKs-40" value="&lt;span style=&quot;font-size: 12px;&quot;&gt;表单提交成功&lt;br&gt;活动报名成功&lt;br&gt;&lt;/span&gt;" style="rounded=1;whiteSpace=wrap;html=1;fontSize=16;" vertex="1" parent="1">
          <mxGeometry x="520" y="640" width="90" height="40" as="geometry" />
        </mxCell>
        <mxCell id="dEJszUH9l_Cdlt4EVpKs-41" value="" style="endArrow=classic;html=1;rounded=0;fontSize=12;exitX=0.5;exitY=1;exitDx=0;exitDy=0;entryX=0;entryY=0.5;entryDx=0;entryDy=0;" edge="1" parent="1" source="dEJszUH9l_Cdlt4EVpKs-37" target="dEJszUH9l_Cdlt4EVpKs-40">
          <mxGeometry width="50" height="50" relative="1" as="geometry">
            <mxPoint x="250" y="529.5" as="sourcePoint" />
            <mxPoint x="340" y="530" as="targetPoint" />
            <Array as="points">
              <mxPoint x="370" y="660" />
            </Array>
          </mxGeometry>
        </mxCell>
        <mxCell id="dEJszUH9l_Cdlt4EVpKs-42" value="否" style="edgeLabel;html=1;align=center;verticalAlign=middle;resizable=0;points=[];fontSize=16;" vertex="1" connectable="0" parent="dEJszUH9l_Cdlt4EVpKs-41">
          <mxGeometry x="-0.3926" relative="1" as="geometry">
            <mxPoint as="offset" />
          </mxGeometry>
        </mxCell>
        <mxCell id="dEJszUH9l_Cdlt4EVpKs-44" value="" style="endArrow=classic;html=1;rounded=0;fontSize=12;exitX=1;exitY=0.5;exitDx=0;exitDy=0;entryX=0;entryY=0.5;entryDx=0;entryDy=0;" edge="1" parent="1" target="dEJszUH9l_Cdlt4EVpKs-39">
          <mxGeometry width="50" height="50" relative="1" as="geometry">
            <mxPoint x="410" y="519.5" as="sourcePoint" />
            <mxPoint x="500" y="520" as="targetPoint" />
          </mxGeometry>
        </mxCell>
        <mxCell id="dEJszUH9l_Cdlt4EVpKs-45" value="是" style="edgeLabel;html=1;align=center;verticalAlign=middle;resizable=0;points=[];fontSize=16;" vertex="1" connectable="0" parent="dEJszUH9l_Cdlt4EVpKs-44">
          <mxGeometry x="-0.2181" y="-1" relative="1" as="geometry">
            <mxPoint as="offset" />
          </mxGeometry>
        </mxCell>
        <mxCell id="dEJszUH9l_Cdlt4EVpKs-46" value="&lt;span style=&quot;font-size: 12px;&quot;&gt;用户微信扫描二维码支付&lt;/span&gt;" style="rounded=1;whiteSpace=wrap;html=1;fontSize=16;" vertex="1" parent="1">
          <mxGeometry x="720" y="505" width="160" height="30" as="geometry" />
        </mxCell>
        <mxCell id="dEJszUH9l_Cdlt4EVpKs-47" value="" style="endArrow=classic;html=1;rounded=0;fontSize=12;entryX=0;entryY=0.5;entryDx=0;entryDy=0;exitX=1;exitY=0.5;exitDx=0;exitDy=0;" edge="1" parent="1" target="dEJszUH9l_Cdlt4EVpKs-46">
          <mxGeometry width="50" height="50" relative="1" as="geometry">
            <mxPoint x="610" y="519.5" as="sourcePoint" />
            <mxPoint x="700" y="519.5" as="targetPoint" />
          </mxGeometry>
        </mxCell>
        <mxCell id="dEJszUH9l_Cdlt4EVpKs-48" value="&lt;span style=&quot;font-size: 12px;&quot;&gt;支付成功&lt;br&gt;表单提交成功&lt;br&gt;活动报名成功&lt;br&gt;&lt;/span&gt;" style="rounded=1;whiteSpace=wrap;html=1;fontSize=16;" vertex="1" parent="1">
          <mxGeometry x="1020" y="485" width="160" height="70" as="geometry" />
        </mxCell>
        <mxCell id="dEJszUH9l_Cdlt4EVpKs-49" value="" style="endArrow=classic;html=1;rounded=0;fontSize=12;entryX=0;entryY=0.5;entryDx=0;entryDy=0;exitX=1;exitY=0.5;exitDx=0;exitDy=0;" edge="1" parent="1" target="dEJszUH9l_Cdlt4EVpKs-48">
          <mxGeometry width="50" height="50" relative="1" as="geometry">
            <mxPoint x="880" y="519.5" as="sourcePoint" />
            <mxPoint x="990" y="520" as="targetPoint" />
          </mxGeometry>
        </mxCell>
        <mxCell id="dEJszUH9l_Cdlt4EVpKs-50" value="" style="endArrow=classic;html=1;rounded=0;fontSize=12;" edge="1" parent="1">
          <mxGeometry x="0.1429" width="50" height="50" relative="1" as="geometry">
            <mxPoint x="910" y="520" as="sourcePoint" />
            <mxPoint x="70" y="500" as="targetPoint" />
            <Array as="points">
              <mxPoint x="910" y="440" />
              <mxPoint x="70" y="440" />
            </Array>
            <mxPoint as="offset" />
          </mxGeometry>
        </mxCell>
        <mxCell id="dEJszUH9l_Cdlt4EVpKs-51" value="用户关闭/取消支付" style="edgeLabel;html=1;align=center;verticalAlign=middle;resizable=0;points=[];fontSize=12;" vertex="1" connectable="0" parent="dEJszUH9l_Cdlt4EVpKs-50">
          <mxGeometry x="0.218" y="1" relative="1" as="geometry">
            <mxPoint as="offset" />
          </mxGeometry>
        </mxCell>
        <mxCell id="dEJszUH9l_Cdlt4EVpKs-52" value="&lt;span style=&quot;font-size: 16px;&quot;&gt;&lt;b&gt;交互流程&lt;/b&gt;&lt;/span&gt;" style="text;html=1;align=center;verticalAlign=middle;resizable=0;points=[];autosize=1;strokeColor=none;fillColor=none;fontSize=12;" vertex="1" parent="1">
          <mxGeometry x="45" y="770" width="90" height="30" as="geometry" />
        </mxCell>
        <mxCell id="dEJszUH9l_Cdlt4EVpKs-53" value="用户" style="shape=umlActor;verticalLabelPosition=bottom;verticalAlign=top;html=1;outlineConnect=0;fontSize=16;" vertex="1" parent="1">
          <mxGeometry x="110" y="880" width="20" height="40" as="geometry" />
        </mxCell>
        <mxCell id="dEJszUH9l_Cdlt4EVpKs-54" value="cta" style="rounded=0;whiteSpace=wrap;html=1;fontSize=16;" vertex="1" parent="1">
          <mxGeometry x="400" y="880" width="120" height="60" as="geometry" />
        </mxCell>
        <mxCell id="dEJszUH9l_Cdlt4EVpKs-55" value="支付中心" style="rounded=0;whiteSpace=wrap;html=1;fontSize=16;" vertex="1" parent="1">
          <mxGeometry x="770" y="880" width="120" height="60" as="geometry" />
        </mxCell>
        <mxCell id="dEJszUH9l_Cdlt4EVpKs-56" value="" style="endArrow=none;dashed=1;html=1;rounded=0;fontSize=16;" edge="1" parent="1">
          <mxGeometry width="50" height="50" relative="1" as="geometry">
            <mxPoint x="120" y="1680" as="sourcePoint" />
            <mxPoint x="120" y="960" as="targetPoint" />
          </mxGeometry>
        </mxCell>
        <mxCell id="dEJszUH9l_Cdlt4EVpKs-58" value="" style="endArrow=none;dashed=1;html=1;rounded=0;fontSize=16;" edge="1" parent="1">
          <mxGeometry width="50" height="50" relative="1" as="geometry">
            <mxPoint x="460" y="1680" as="sourcePoint" />
            <mxPoint x="459.5" y="960" as="targetPoint" />
          </mxGeometry>
        </mxCell>
        <mxCell id="dEJszUH9l_Cdlt4EVpKs-59" value="" style="endArrow=none;dashed=1;html=1;rounded=0;fontSize=16;" edge="1" parent="1">
          <mxGeometry width="50" height="50" relative="1" as="geometry">
            <mxPoint x="830" y="1680" as="sourcePoint" />
            <mxPoint x="829.5" y="960" as="targetPoint" />
          </mxGeometry>
        </mxCell>
        <mxCell id="dEJszUH9l_Cdlt4EVpKs-60" value="" style="endArrow=classic;html=1;rounded=0;fontSize=16;" edge="1" parent="1">
          <mxGeometry width="50" height="50" relative="1" as="geometry">
            <mxPoint x="130" y="990" as="sourcePoint" />
            <mxPoint x="450" y="990" as="targetPoint" />
          </mxGeometry>
        </mxCell>
        <mxCell id="dEJszUH9l_Cdlt4EVpKs-66" value="&amp;nbsp;获取 cta 的静态签名" style="edgeLabel;html=1;align=center;verticalAlign=middle;resizable=0;points=[];fontSize=11;" vertex="1" connectable="0" parent="dEJszUH9l_Cdlt4EVpKs-60">
          <mxGeometry x="-0.1062" y="-1" relative="1" as="geometry">
            <mxPoint as="offset" />
          </mxGeometry>
        </mxCell>
        <mxCell id="dEJszUH9l_Cdlt4EVpKs-64" value="" style="endArrow=classic;html=1;rounded=0;fontSize=16;" edge="1" parent="1">
          <mxGeometry width="50" height="50" relative="1" as="geometry">
            <mxPoint x="460" y="1020" as="sourcePoint" />
            <mxPoint x="130" y="1020" as="targetPoint" />
          </mxGeometry>
        </mxCell>
        <mxCell id="dEJszUH9l_Cdlt4EVpKs-67" value="&amp;nbsp;返回 cta 的静态签名" style="edgeLabel;html=1;align=center;verticalAlign=middle;resizable=0;points=[];fontSize=11;" vertex="1" connectable="0" parent="dEJszUH9l_Cdlt4EVpKs-64">
          <mxGeometry x="0.1212" y="-2" relative="1" as="geometry">
            <mxPoint as="offset" />
          </mxGeometry>
        </mxCell>
        <mxCell id="dEJszUH9l_Cdlt4EVpKs-68" value="" style="endArrow=classic;html=1;rounded=0;fontSize=16;" edge="1" parent="1">
          <mxGeometry width="50" height="50" relative="1" as="geometry">
            <mxPoint x="130" y="1070" as="sourcePoint" />
            <mxPoint x="450" y="1070" as="targetPoint" />
          </mxGeometry>
        </mxCell>
        <mxCell id="dEJszUH9l_Cdlt4EVpKs-69" value="&amp;nbsp;发起下单" style="edgeLabel;html=1;align=center;verticalAlign=middle;resizable=0;points=[];fontSize=11;" vertex="1" connectable="0" parent="dEJszUH9l_Cdlt4EVpKs-68">
          <mxGeometry x="-0.1062" y="-1" relative="1" as="geometry">
            <mxPoint as="offset" />
          </mxGeometry>
        </mxCell>
        <mxCell id="dEJszUH9l_Cdlt4EVpKs-76" value="" style="endArrow=classic;html=1;rounded=0;fontSize=16;" edge="1" parent="1">
          <mxGeometry width="50" height="50" relative="1" as="geometry">
            <mxPoint x="460" y="1130" as="sourcePoint" />
            <mxPoint x="120" y="1130" as="targetPoint" />
            <Array as="points">
              <mxPoint x="350" y="1130" />
            </Array>
          </mxGeometry>
        </mxCell>
        <mxCell id="dEJszUH9l_Cdlt4EVpKs-77" value="验签失败，直接返回" style="edgeLabel;html=1;align=center;verticalAlign=middle;resizable=0;points=[];fontSize=11;" vertex="1" connectable="0" parent="dEJszUH9l_Cdlt4EVpKs-76">
          <mxGeometry x="-0.1062" y="-1" relative="1" as="geometry">
            <mxPoint as="offset" />
          </mxGeometry>
        </mxCell>
        <mxCell id="dEJszUH9l_Cdlt4EVpKs-79" value="" style="endArrow=classic;html=1;rounded=0;fontSize=16;" edge="1" parent="1">
          <mxGeometry width="50" height="50" relative="1" as="geometry">
            <mxPoint x="470" y="1160" as="sourcePoint" />
            <mxPoint x="790" y="1160" as="targetPoint" />
          </mxGeometry>
        </mxCell>
        <mxCell id="dEJszUH9l_Cdlt4EVpKs-80" value="&amp;nbsp;发起下单" style="edgeLabel;html=1;align=center;verticalAlign=middle;resizable=0;points=[];fontSize=11;" vertex="1" connectable="0" parent="dEJszUH9l_Cdlt4EVpKs-79">
          <mxGeometry x="-0.1062" y="-1" relative="1" as="geometry">
            <mxPoint as="offset" />
          </mxGeometry>
        </mxCell>
        <mxCell id="dEJszUH9l_Cdlt4EVpKs-81" value="" style="endArrow=classic;html=1;rounded=0;fontSize=16;" edge="1" parent="1">
          <mxGeometry width="50" height="50" relative="1" as="geometry">
            <mxPoint x="130" y="1330" as="sourcePoint" />
            <mxPoint x="120" y="1360" as="targetPoint" />
            <Array as="points">
              <mxPoint x="190" y="1330" />
              <mxPoint x="190" y="1360" />
            </Array>
          </mxGeometry>
        </mxCell>
        <mxCell id="dEJszUH9l_Cdlt4EVpKs-82" value="response j_token 验签" style="edgeLabel;html=1;align=center;verticalAlign=middle;resizable=0;points=[];fontSize=11;" vertex="1" connectable="0" parent="dEJszUH9l_Cdlt4EVpKs-81">
          <mxGeometry x="-0.1062" y="-1" relative="1" as="geometry">
            <mxPoint as="offset" />
          </mxGeometry>
        </mxCell>
        <mxCell id="dEJszUH9l_Cdlt4EVpKs-83" value="" style="endArrow=classic;html=1;rounded=0;fontSize=16;" edge="1" parent="1">
          <mxGeometry width="50" height="50" relative="1" as="geometry">
            <mxPoint x="820" y="1250" as="sourcePoint" />
            <mxPoint x="470" y="1250" as="targetPoint" />
            <Array as="points">
              <mxPoint x="690" y="1250" />
              <mxPoint x="640" y="1250" />
            </Array>
          </mxGeometry>
        </mxCell>
        <mxCell id="dEJszUH9l_Cdlt4EVpKs-84" value="&amp;nbsp;返回支付必要参数&lt;br&gt;jsapi 需要 prepay_id&lt;br&gt;native 需要 code_url" style="edgeLabel;html=1;align=center;verticalAlign=middle;resizable=0;points=[];fontSize=11;" vertex="1" connectable="0" parent="dEJszUH9l_Cdlt4EVpKs-83">
          <mxGeometry x="-0.1062" y="-1" relative="1" as="geometry">
            <mxPoint as="offset" />
          </mxGeometry>
        </mxCell>
        <mxCell id="dEJszUH9l_Cdlt4EVpKs-85" value="" style="endArrow=classic;html=1;rounded=0;fontSize=16;" edge="1" parent="1">
          <mxGeometry width="50" height="50" relative="1" as="geometry">
            <mxPoint x="450" y="1290" as="sourcePoint" />
            <mxPoint x="120" y="1290" as="targetPoint" />
            <Array as="points">
              <mxPoint x="340" y="1290" />
              <mxPoint x="290" y="1290" />
            </Array>
          </mxGeometry>
        </mxCell>
        <mxCell id="dEJszUH9l_Cdlt4EVpKs-86" value="&amp;nbsp;返回支付必要参数&lt;br&gt;jsapi 需要 prepay_id&lt;br&gt;native 需要 code_url" style="edgeLabel;html=1;align=center;verticalAlign=middle;resizable=0;points=[];fontSize=11;" vertex="1" connectable="0" parent="dEJszUH9l_Cdlt4EVpKs-85">
          <mxGeometry x="-0.1062" y="-1" relative="1" as="geometry">
            <mxPoint as="offset" />
          </mxGeometry>
        </mxCell>
        <mxCell id="dEJszUH9l_Cdlt4EVpKs-87" value="" style="endArrow=classic;html=1;rounded=0;fontSize=16;" edge="1" parent="1">
          <mxGeometry width="50" height="50" relative="1" as="geometry">
            <mxPoint x="120" y="1390" as="sourcePoint" />
            <mxPoint x="450" y="1390" as="targetPoint" />
            <Array as="points">
              <mxPoint x="340" y="1390" />
            </Array>
          </mxGeometry>
        </mxCell>
        <mxCell id="dEJszUH9l_Cdlt4EVpKs-88" value="native 模式轮训订单状态" style="edgeLabel;html=1;align=center;verticalAlign=middle;resizable=0;points=[];fontSize=11;" vertex="1" connectable="0" parent="dEJszUH9l_Cdlt4EVpKs-87">
          <mxGeometry x="-0.1062" y="-1" relative="1" as="geometry">
            <mxPoint as="offset" />
          </mxGeometry>
        </mxCell>
        <mxCell id="dEJszUH9l_Cdlt4EVpKs-92" value="" style="endArrow=classic;html=1;rounded=0;fontSize=16;" edge="1" parent="1">
          <mxGeometry width="50" height="50" relative="1" as="geometry">
            <mxPoint x="490" y="1100" as="sourcePoint" />
            <mxPoint x="480" y="1130" as="targetPoint" />
            <Array as="points">
              <mxPoint x="550" y="1100" />
              <mxPoint x="550" y="1130" />
            </Array>
          </mxGeometry>
        </mxCell>
        <mxCell id="dEJszUH9l_Cdlt4EVpKs-93" value="&amp;nbsp;j_token 验签" style="edgeLabel;html=1;align=center;verticalAlign=middle;resizable=0;points=[];fontSize=11;" vertex="1" connectable="0" parent="dEJszUH9l_Cdlt4EVpKs-92">
          <mxGeometry x="-0.1062" y="-1" relative="1" as="geometry">
            <mxPoint as="offset" />
          </mxGeometry>
        </mxCell>
        <mxCell id="dEJszUH9l_Cdlt4EVpKs-94" value="" style="endArrow=classic;html=1;rounded=0;fontSize=16;" edge="1" parent="1">
          <mxGeometry width="50" height="50" relative="1" as="geometry">
            <mxPoint x="130" y="1540" as="sourcePoint" />
            <mxPoint x="1200" y="1540" as="targetPoint" />
            <Array as="points">
              <mxPoint x="350" y="1540" />
            </Array>
          </mxGeometry>
        </mxCell>
        <mxCell id="dEJszUH9l_Cdlt4EVpKs-95" value="输入密码，确认支付" style="edgeLabel;html=1;align=center;verticalAlign=middle;resizable=0;points=[];fontSize=11;" vertex="1" connectable="0" parent="dEJszUH9l_Cdlt4EVpKs-94">
          <mxGeometry x="-0.1062" y="-1" relative="1" as="geometry">
            <mxPoint as="offset" />
          </mxGeometry>
        </mxCell>
        <mxCell id="dEJszUH9l_Cdlt4EVpKs-96" value="微信" style="rounded=0;whiteSpace=wrap;html=1;fontSize=16;" vertex="1" parent="1">
          <mxGeometry x="1130" y="880" width="120" height="60" as="geometry" />
        </mxCell>
        <mxCell id="dEJszUH9l_Cdlt4EVpKs-97" value="" style="endArrow=none;dashed=1;html=1;rounded=0;fontSize=16;" edge="1" parent="1">
          <mxGeometry width="50" height="50" relative="1" as="geometry">
            <mxPoint x="1200.5" y="1670" as="sourcePoint" />
            <mxPoint x="1200" y="950" as="targetPoint" />
          </mxGeometry>
        </mxCell>
        <mxCell id="dEJszUH9l_Cdlt4EVpKs-98" value="" style="endArrow=classic;html=1;rounded=0;fontSize=16;" edge="1" parent="1">
          <mxGeometry width="50" height="50" relative="1" as="geometry">
            <mxPoint x="850" y="1180" as="sourcePoint" />
            <mxPoint x="1170" y="1180" as="targetPoint" />
          </mxGeometry>
        </mxCell>
        <mxCell id="dEJszUH9l_Cdlt4EVpKs-99" value="&amp;nbsp;生成微信预付单" style="edgeLabel;html=1;align=center;verticalAlign=middle;resizable=0;points=[];fontSize=11;" vertex="1" connectable="0" parent="dEJszUH9l_Cdlt4EVpKs-98">
          <mxGeometry x="-0.1062" y="-1" relative="1" as="geometry">
            <mxPoint as="offset" />
          </mxGeometry>
        </mxCell>
        <mxCell id="dEJszUH9l_Cdlt4EVpKs-100" value="" style="endArrow=classic;html=1;rounded=0;fontSize=16;" edge="1" parent="1">
          <mxGeometry width="50" height="50" relative="1" as="geometry">
            <mxPoint x="1200" y="1220" as="sourcePoint" />
            <mxPoint x="850" y="1220" as="targetPoint" />
            <Array as="points">
              <mxPoint x="1070" y="1220" />
              <mxPoint x="1020" y="1220" />
            </Array>
          </mxGeometry>
        </mxCell>
        <mxCell id="dEJszUH9l_Cdlt4EVpKs-101" value="&amp;nbsp;返回预付单数据" style="edgeLabel;html=1;align=center;verticalAlign=middle;resizable=0;points=[];fontSize=11;" vertex="1" connectable="0" parent="dEJszUH9l_Cdlt4EVpKs-100">
          <mxGeometry x="-0.1062" y="-1" relative="1" as="geometry">
            <mxPoint as="offset" />
          </mxGeometry>
        </mxCell>
        <mxCell id="dEJszUH9l_Cdlt4EVpKs-102" value="" style="endArrow=classic;html=1;rounded=0;fontSize=16;" edge="1" parent="1">
          <mxGeometry width="50" height="50" relative="1" as="geometry">
            <mxPoint x="480" y="1410" as="sourcePoint" />
            <mxPoint x="810" y="1410" as="targetPoint" />
            <Array as="points">
              <mxPoint x="700" y="1410" />
            </Array>
          </mxGeometry>
        </mxCell>
        <mxCell id="dEJszUH9l_Cdlt4EVpKs-103" value="native 模式轮训订单状态" style="edgeLabel;html=1;align=center;verticalAlign=middle;resizable=0;points=[];fontSize=11;" vertex="1" connectable="0" parent="dEJszUH9l_Cdlt4EVpKs-102">
          <mxGeometry x="-0.1062" y="-1" relative="1" as="geometry">
            <mxPoint as="offset" />
          </mxGeometry>
        </mxCell>
        <mxCell id="dEJszUH9l_Cdlt4EVpKs-104" value="" style="endArrow=classic;html=1;rounded=0;fontSize=16;" edge="1" parent="1">
          <mxGeometry width="50" height="50" relative="1" as="geometry">
            <mxPoint x="850" y="1430" as="sourcePoint" />
            <mxPoint x="1180" y="1430" as="targetPoint" />
            <Array as="points">
              <mxPoint x="1070" y="1430" />
            </Array>
          </mxGeometry>
        </mxCell>
        <mxCell id="dEJszUH9l_Cdlt4EVpKs-105" value="native 模式轮训订单状态" style="edgeLabel;html=1;align=center;verticalAlign=middle;resizable=0;points=[];fontSize=11;" vertex="1" connectable="0" parent="dEJszUH9l_Cdlt4EVpKs-104">
          <mxGeometry x="-0.1062" y="-1" relative="1" as="geometry">
            <mxPoint as="offset" />
          </mxGeometry>
        </mxCell>
        <mxCell id="dEJszUH9l_Cdlt4EVpKs-108" value="" style="endArrow=classic;html=1;rounded=0;fontSize=16;" edge="1" parent="1">
          <mxGeometry width="50" height="50" relative="1" as="geometry">
            <mxPoint x="1190" y="1620" as="sourcePoint" />
            <mxPoint x="840" y="1620" as="targetPoint" />
            <Array as="points">
              <mxPoint x="1060" y="1620" />
              <mxPoint x="1010" y="1620" />
            </Array>
          </mxGeometry>
        </mxCell>
        <mxCell id="dEJszUH9l_Cdlt4EVpKs-109" value="支付回调" style="edgeLabel;html=1;align=center;verticalAlign=middle;resizable=0;points=[];fontSize=11;" vertex="1" connectable="0" parent="dEJszUH9l_Cdlt4EVpKs-108">
          <mxGeometry x="-0.1062" y="-1" relative="1" as="geometry">
            <mxPoint as="offset" />
          </mxGeometry>
        </mxCell>
        <mxCell id="dEJszUH9l_Cdlt4EVpKs-110" value="" style="endArrow=classic;html=1;rounded=0;fontSize=16;" edge="1" parent="1">
          <mxGeometry width="50" height="50" relative="1" as="geometry">
            <mxPoint x="820" y="1640" as="sourcePoint" />
            <mxPoint x="470" y="1640" as="targetPoint" />
            <Array as="points">
              <mxPoint x="690" y="1640" />
              <mxPoint x="640" y="1640" />
            </Array>
          </mxGeometry>
        </mxCell>
        <mxCell id="dEJszUH9l_Cdlt4EVpKs-111" value="业务回调，后续逻辑" style="edgeLabel;html=1;align=center;verticalAlign=middle;resizable=0;points=[];fontSize=11;" vertex="1" connectable="0" parent="dEJszUH9l_Cdlt4EVpKs-110">
          <mxGeometry x="-0.1062" y="-1" relative="1" as="geometry">
            <mxPoint as="offset" />
          </mxGeometry>
        </mxCell>
      </root>
    </mxGraphModel>
  </diagram>
</mxfile>
